<?xml version="1.0" encoding="utf-8" standalone="no"?>
<!DOCTYPE svg PUBLIC "-//W3C//DTD SVG 1.1//EN"
  "http://www.w3.org/Graphics/SVG/1.1/DTD/svg11.dtd">
<svg xmlns:xlink="http://www.w3.org/1999/xlink" width="864pt" height="216pt" viewBox="0 0 864 216" xmlns="http://www.w3.org/2000/svg" version="1.1">
 <metadata>
  <rdf:RDF xmlns:dc="http://purl.org/dc/elements/1.1/" xmlns:cc="http://creativecommons.org/ns#" xmlns:rdf="http://www.w3.org/1999/02/22-rdf-syntax-ns#">
   <cc:Work>
    <dc:type rdf:resource="http://purl.org/dc/dcmitype/StillImage"/>
    <dc:date>2023-11-07T12:54:44.318470</dc:date>
    <dc:format>image/svg+xml</dc:format>
    <dc:creator>
     <cc:Agent>
      <dc:title>Matplotlib v3.7.2, https://matplotlib.org/</dc:title>
     </cc:Agent>
    </dc:creator>
   </cc:Work>
  </rdf:RDF>
 </metadata>
 <defs>
  <style type="text/css">*{stroke-linejoin: round; stroke-linecap: butt}</style>
 </defs>
 <g id="figure_1">
  <g id="patch_1">
   <path d="M 0 216 
L 864 216 
L 864 0 
L 0 0 
z
" style="fill: #ffffff"/>
  </g>
  <g id="axes_1">
   <g id="line2d_1">
    <path d="M 116.951872 184.349219 
L 122.704078 183.971382 
L 127.018233 183.466193 
L 130.613363 182.820088 
L 133.489466 182.100185 
L 136.365569 181.146599 
L 139.241673 179.901345 
L 141.39875 178.73658 
L 143.555828 177.340304 
L 145.712905 175.680245 
L 147.869983 173.722934 
L 150.02706 171.434487 
L 152.184138 168.781569 
L 154.341215 165.732553 
L 156.498293 162.258839 
L 158.65537 158.336319 
L 160.812448 153.946943 
L 162.969525 149.080326 
L 165.126603 143.735344 
L 168.002706 135.882939 
L 170.878809 127.255335 
L 173.754913 117.951457 
L 177.350042 105.59293 
L 188.135429 67.729266 
L 191.011533 58.710238 
L 193.16861 52.593042 
L 195.325688 47.160423 
L 196.763739 43.972218 
L 198.201791 41.164504 
L 199.639843 38.762773 
L 201.077894 36.789108 
L 202.515946 35.26184 
L 203.953998 34.195272 
L 205.392049 33.599448 
L 206.111075 33.48 
L 206.830101 33.48 
L 207.549127 33.599448 
L 208.268153 33.83806 
L 209.706204 34.670239 
L 211.144256 35.968683 
L 212.582308 37.721195 
L 214.02036 39.911426 
L 215.458411 42.519131 
L 216.896463 45.520476 
L 219.05354 50.7006 
L 221.210618 56.602135 
L 223.367695 63.111493 
L 226.243799 72.526738 
L 230.557954 87.628706 
L 238.467238 115.535624 
L 242.062367 127.255335 
L 244.93847 135.882939 
L 247.814574 143.735344 
L 249.971651 149.080326 
L 252.128729 153.946943 
L 254.285806 158.336319 
L 256.442884 162.258839 
L 258.599961 165.732553 
L 260.757039 168.781569 
L 262.914116 171.434487 
L 265.071194 173.722934 
L 267.228271 175.680245 
L 269.385349 177.340304 
L 271.542426 178.73658 
L 273.699504 179.901345 
L 275.856581 180.865075 
L 278.732685 181.88582 
L 281.608788 182.659163 
L 285.203917 183.355949 
L 288.799046 183.829455 
L 293.832227 184.237216 
L 295.989305 184.349219 
L 295.989305 184.349219 
" clip-path="url(#p6fb919fb23)" style="fill: none; stroke: #1f77b4; stroke-width: 1.5; stroke-linecap: square"/>
   </g>
   <g id="line2d_2">
    <path d="M 206.470588 184.68 
L 206.470588 33.48 
" clip-path="url(#p6fb919fb23)" style="fill: none; stroke-dasharray: 5.55,2.4; stroke-dashoffset: 0; stroke: #ff7f0e; stroke-width: 1.5"/>
   </g>
   <g id="line2d_3">
    <path d="M 180.893812 92.963466 
L 232.047364 92.963466 
" clip-path="url(#p6fb919fb23)" style="fill: none; stroke-dasharray: 5.55,2.4; stroke-dashoffset: 0; stroke: #2ca02c; stroke-width: 1.5"/>
   </g>
   <g id="text_1">
    <!-- $X$ -->
    <g transform="translate(198.374567 25.92) scale(0.2 -0.2)">
     <defs>
      <path id="CMMI12-58" d="M 3040 2586 
L 2438 3981 
C 2522 4134 2714 4159 2790 4166 
C 2829 4166 2899 4172 2899 4281 
C 2899 4352 2842 4352 2803 4352 
C 2694 4352 2566 4339 2458 4339 
L 2086 4339 
C 1696 4339 1414 4352 1408 4352 
C 1357 4352 1293 4352 1293 4230 
C 1293 4166 1350 4166 1434 4166 
C 1805 4166 1830 4102 1894 3949 
L 2656 2179 
L 1267 701 
C 1037 453 762 211 288 185 
C 211 179 160 179 160 64 
C 160 44 166 0 237 0 
C 326 0 422 12 512 12 
L 813 12 
C 1018 12 1242 0 1440 0 
C 1485 0 1562 0 1562 115 
C 1562 179 1517 185 1478 185 
C 1350 198 1267 268 1267 370 
C 1267 478 1344 555 1530 746 
L 2099 1363 
C 2240 1510 2579 1879 2720 2019 
L 3392 453 
C 3398 440 3424 376 3424 370 
C 3424 312 3283 198 3078 185 
C 3040 185 2970 179 2970 64 
C 2970 0 3034 0 3066 0 
C 3174 0 3302 12 3411 12 
L 4115 12 
C 4230 12 4352 0 4461 0 
C 4506 0 4576 0 4576 121 
C 4576 185 4512 185 4454 185 
C 4070 191 4058 223 3949 459 
L 3104 2433 
L 3917 3300 
C 3981 3363 4128 3523 4186 3586 
C 4461 3873 4717 4134 5235 4166 
C 5299 4172 5363 4172 5363 4281 
C 5363 4352 5306 4352 5280 4352 
C 5190 4352 5094 4339 5005 4339 
L 4710 4339 
C 4506 4339 4282 4352 4083 4352 
C 4038 4352 3962 4352 3962 4236 
C 3962 4172 4006 4166 4045 4166 
C 4147 4153 4256 4102 4256 3981 
L 4250 3968 
C 4243 3924 4230 3860 4160 3784 
L 3040 2586 
z
" transform="scale(0.015625)"/>
     </defs>
     <use xlink:href="#CMMI12-58" transform="scale(0.996264)"/>
    </g>
   </g>
   <g id="patch_2">
    <path d="M 205.970588 198.833642 
Q 205.970588 196.153013 205.970588 193.472383 
L 203.970588 193.472383 
Q 205.220588 190.97139 206.470588 188.470396 
Q 207.720588 190.97139 208.970588 193.472383 
L 206.970588 193.472383 
Q 206.970588 196.153013 206.970588 198.833642 
L 205.970588 198.833642 
z
" style="fill: #ff7f0e; stroke: #ff7f0e; stroke-linecap: round"/>
   </g>
   <g id="text_2">
    <!-- $\mu_X$ -->
    <g transform="translate(197.735522 211.212775) scale(0.15 -0.15)">
     <defs>
      <path id="CMMI12-16" d="M 922 140 
C 1082 -7 1318 -64 1536 -64 
C 1946 -64 2227 210 2374 408 
C 2438 70 2707 -64 2931 -64 
C 3123 -64 3277 51 3392 281 
C 3494 498 3584 887 3584 913 
C 3584 944 3558 970 3520 970 
C 3462 970 3456 938 3430 842 
C 3334 466 3213 64 2950 64 
C 2765 64 2752 229 2752 357 
C 2752 504 2810 734 2854 925 
L 3034 1615 
C 3059 1736 3130 2023 3162 2138 
C 3200 2291 3270 2566 3270 2591 
C 3270 2687 3194 2752 3098 2752 
C 3040 2752 2906 2726 2854 2534 
L 2406 759 
C 2374 632 2374 619 2291 517 
C 2214 408 1965 64 1562 64 
C 1203 64 1088 325 1088 625 
C 1088 811 1146 1034 1171 1143 
L 1459 2292 
C 1491 2413 1542 2617 1542 2656 
C 1542 2758 1459 2816 1376 2816 
C 1318 2816 1178 2796 1126 2592 
L 198 -1085 
C 192 -1116 179 -1154 179 -1191 
C 179 -1287 256 -1351 352 -1351 
C 538 -1351 576 -1204 621 -1029 
L 922 140 
z
" transform="scale(0.015625)"/>
     </defs>
     <use xlink:href="#CMMI12-16" transform="scale(0.996264)"/>
     <use xlink:href="#CMMI12-58" transform="translate(58.691421 -14.943915) scale(0.697382)"/>
    </g>
   </g>
   <g id="patch_3">
    <path d="M 255.874157 71.150804 
Q 241.134858 79.649821 226.395558 88.148838 
L 227.394613 89.881434 
Q 224.605633 90.046702 221.816654 90.21197 
Q 223.356815 87.880956 224.896976 85.549943 
L 225.896031 87.282539 
Q 240.635331 78.783523 255.37463 70.284506 
L 255.874157 71.150804 
z
" style="fill: #2ca02c; stroke: #2ca02c; stroke-linecap: round"/>
   </g>
   <g id="text_3">
    <!-- $\sigma_X^2$ -->
    <g transform="translate(257.624141 65.448506) scale(0.15 -0.15)">
     <defs>
      <path id="CMMI12-1b" d="M 3251 2406 
C 3334 2406 3546 2406 3546 2611 
C 3546 2752 3424 2752 3309 2752 
L 1894 2752 
C 934 2752 243 1685 243 932 
C 243 389 595 -64 1171 -64 
C 1926 -64 2752 746 2752 1704 
C 2752 1953 2694 2195 2541 2406 
L 3251 2406 
z
M 1178 64 
C 851 64 614 312 614 753 
C 614 1136 845 2406 1786 2406 
C 2061 2406 2368 2272 2368 1780 
C 2368 1557 2266 1021 2042 651 
C 1811 274 1466 64 1178 64 
z
" transform="scale(0.015625)"/>
      <path id="CMR17-32" d="M 2669 990 
L 2554 990 
C 2490 537 2438 460 2413 422 
C 2381 371 1920 371 1830 371 
L 602 371 
C 832 620 1280 1073 1824 1596 
C 2214 1966 2669 2400 2669 3033 
C 2669 3788 2067 4224 1395 4224 
C 691 4224 262 3603 262 3027 
C 262 2777 448 2745 525 2745 
C 589 2745 781 2783 781 3007 
C 781 3206 614 3264 525 3264 
C 486 3264 448 3257 422 3244 
C 544 3788 915 4057 1306 4057 
C 1862 4057 2227 3616 2227 3033 
C 2227 2477 1901 1998 1536 1583 
L 262 147 
L 262 0 
L 2515 0 
L 2669 990 
z
" transform="scale(0.015625)"/>
     </defs>
     <use xlink:href="#CMMI12-1b" transform="scale(0.996264)"/>
     <use xlink:href="#CMR17-32" transform="translate(59.020054 36.153639) scale(0.697382)"/>
     <use xlink:href="#CMMI12-58" transform="translate(55.445461 -27.44057) scale(0.697382)"/>
    </g>
   </g>
  </g>
  <g id="axes_2">
   <g id="line2d_4">
    <path d="M 353.281283 184.349219 
L 359.03349 183.971382 
L 363.347645 183.466193 
L 366.942774 182.820088 
L 369.818878 182.100185 
L 372.694981 181.146599 
L 375.571084 179.901345 
L 377.728162 178.73658 
L 379.885239 177.340304 
L 382.042317 175.680245 
L 384.199394 173.722934 
L 386.356472 171.434487 
L 388.513549 168.781569 
L 390.670627 165.732553 
L 392.827704 162.258839 
L 394.984782 158.336319 
L 397.141859 153.946943 
L 399.298937 149.080326 
L 401.456014 143.735344 
L 404.332118 135.882939 
L 407.208221 127.255335 
L 410.084324 117.951457 
L 413.679454 105.59293 
L 424.464841 67.729266 
L 427.340945 58.710238 
L 429.498022 52.593042 
L 431.6551 47.160423 
L 433.093151 43.972218 
L 434.531203 41.164504 
L 435.969255 38.762773 
L 437.407306 36.789108 
L 438.845358 35.26184 
L 440.28341 34.195272 
L 441.721461 33.599448 
L 442.440487 33.48 
L 443.159513 33.48 
L 443.878539 33.599448 
L 444.597565 33.83806 
L 446.035616 34.670239 
L 447.473668 35.968683 
L 448.91172 37.721195 
L 450.349771 39.911426 
L 451.787823 42.519131 
L 453.225875 45.520476 
L 455.382952 50.7006 
L 457.54003 56.602135 
L 459.697107 63.111493 
L 462.57321 72.526738 
L 466.887366 87.628706 
L 474.79665 115.535624 
L 478.391779 127.255335 
L 481.267882 135.882939 
L 484.143986 143.735344 
L 486.301063 149.080326 
L 488.458141 153.946943 
L 490.615218 158.336319 
L 492.772296 162.258839 
L 494.929373 165.732553 
L 497.086451 168.781569 
L 499.243528 171.434487 
L 501.400606 173.722934 
L 503.557683 175.680245 
L 505.714761 177.340304 
L 507.871838 178.73658 
L 510.028916 179.901345 
L 512.185993 180.865075 
L 515.062097 181.88582 
L 517.9382 182.659163 
L 521.533329 183.355949 
L 525.128458 183.829455 
L 530.161639 184.237216 
L 532.318717 184.349219 
L 532.318717 184.349219 
" clip-path="url(#p4716fea636)" style="fill: none; stroke: #1f77b4; stroke-width: 1.5; stroke-linecap: square"/>
   </g>
   <g id="line2d_5">
    <path d="M 442.8 184.68 
L 442.8 33.48 
" clip-path="url(#p4716fea636)" style="fill: none; stroke-dasharray: 5.55,2.4; stroke-dashoffset: 0; stroke: #ff7f0e; stroke-width: 1.5"/>
   </g>
   <g id="line2d_6">
    <path d="M 417.223224 92.963466 
L 468.376776 92.963466 
" clip-path="url(#p4716fea636)" style="fill: none; stroke-dasharray: 5.55,2.4; stroke-dashoffset: 0; stroke: #2ca02c; stroke-width: 1.5"/>
   </g>
   <g id="text_4">
    <!-- $\alpha + \beta t$ -->
    <g transform="translate(415.350598 25.92) scale(0.2 -0.2)">
     <defs>
      <path id="CMMI12-b" d="M 2963 1615 
C 2963 2234 2611 2816 1933 2816 
C 1094 2816 256 1902 256 996 
C 256 440 602 -64 1254 -64 
C 1651 -64 2125 89 2579 472 
C 2669 115 2867 -64 3142 -64 
C 3488 -64 3661 293 3661 376 
C 3661 434 3616 434 3597 434 
C 3546 434 3539 415 3520 364 
C 3462 204 3315 64 3162 64 
C 2963 64 2963 472 2963 862 
C 3616 1641 3770 2445 3770 2451 
C 3770 2509 3718 2509 3699 2509 
C 3642 2509 3635 2490 3610 2375 
C 3526 2094 3360 1596 2963 1072 
L 2963 1615 
z
M 2560 625 
C 1997 121 1491 64 1267 64 
C 813 64 685 466 685 766 
C 685 1040 826 1692 1024 2043 
C 1286 2490 1645 2687 1933 2687 
C 2554 2687 2554 1877 2554 1340 
C 2554 1181 2547 1015 2547 855 
C 2547 728 2554 696 2560 625 
z
" transform="scale(0.015625)"/>
      <path id="CMR17-2b" d="M 2413 1472 
L 4109 1472 
C 4198 1472 4307 1472 4307 1580 
C 4307 1696 4205 1696 4109 1696 
L 2413 1696 
L 2413 3385 
C 2413 3475 2413 3584 2304 3584 
C 2189 3584 2189 3481 2189 3385 
L 2189 1696 
L 493 1696 
C 403 1696 294 1696 294 1587 
C 294 1472 397 1472 493 1472 
L 2189 1472 
L 2189 -194 
C 2189 -282 2189 -391 2298 -391 
C 2413 -391 2413 -289 2413 -194 
L 2413 1472 
z
" transform="scale(0.015625)"/>
      <path id="CMMI12-c" d="M 3622 3739 
C 3622 4131 3296 4544 2714 4544 
C 1888 4544 1363 3510 1197 2830 
L 186 -1152 
C 173 -1204 211 -1216 243 -1216 
C 288 -1216 320 -1210 326 -1178 
L 774 592 
C 838 231 1190 -64 1568 -64 
C 2483 -64 3347 657 3347 1618 
C 3347 1863 3290 2108 3155 2314 
C 3078 2437 2982 2527 2880 2599 
C 3341 2823 3622 3222 3622 3739 
z
M 2509 2605 
C 2406 2571 2304 2560 2182 2560 
C 2093 2560 2010 2553 1894 2588 
C 1958 2627 2054 2639 2189 2639 
C 2304 2639 2419 2627 2509 2605 
z
M 3290 3798 
C 3290 3438 3117 2915 2701 2684 
C 2579 2723 2413 2752 2272 2752 
C 2138 2752 1754 2765 1754 2582 
C 1754 2411 2106 2430 2214 2430 
C 2381 2430 2528 2469 2682 2514 
C 2886 2347 2976 2127 2976 1805 
C 2976 1431 2874 1128 2752 850 
C 2541 373 2042 64 1600 64 
C 1133 64 890 438 890 876 
C 890 934 890 1018 915 1115 
L 1331 2784 
C 1542 3641 2080 4413 2701 4413 
C 3162 4413 3290 4086 3290 3798 
z
" transform="scale(0.015625)"/>
      <path id="CMMI12-74" d="M 1286 2566 
L 1875 2566 
C 1997 2566 2061 2566 2061 2681 
C 2061 2752 2022 2752 1894 2752 
L 1331 2752 
L 1568 3664 
C 1594 3752 1594 3764 1594 3808 
C 1594 3910 1510 3968 1427 3968 
C 1376 3968 1229 3948 1178 3746 
L 928 2752 
L 326 2752 
C 198 2752 141 2752 141 2630 
C 141 2566 186 2566 307 2566 
L 877 2566 
L 454 881 
C 403 657 384 593 384 510 
C 384 210 595 -64 954 -64 
C 1600 -64 1946 868 1946 913 
C 1946 951 1920 970 1882 970 
C 1869 970 1843 970 1830 944 
C 1824 938 1818 932 1773 830 
C 1638 510 1344 64 973 64 
C 781 64 768 223 768 364 
C 768 370 768 491 787 568 
L 1286 2566 
z
" transform="scale(0.015625)"/>
     </defs>
     <use xlink:href="#CMMI12-b" transform="scale(0.996264)"/>
     <use xlink:href="#CMR17-2b" transform="translate(84.82023 0) scale(0.996264)"/>
     <use xlink:href="#CMMI12-c" transform="translate(178.674225 0) scale(0.996264)"/>
     <use xlink:href="#CMMI12-74" transform="translate(239.268241 0) scale(0.996264)"/>
    </g>
   </g>
   <g id="patch_4">
    <path d="M 442.3 198.833642 
Q 442.3 196.153013 442.3 193.472383 
L 440.3 193.472383 
Q 441.55 190.97139 442.8 188.470396 
Q 444.05 190.97139 445.3 193.472383 
L 443.3 193.472383 
Q 443.3 196.153013 443.3 198.833642 
L 442.3 198.833642 
z
" style="fill: #ff7f0e; stroke: #ff7f0e; stroke-linecap: round"/>
   </g>
   <g id="text_5">
    <!-- $\mu_t + \alpha$ -->
    <g transform="translate(422.595569 211.212775) scale(0.15 -0.15)">
     <use xlink:href="#CMMI12-16" transform="scale(0.996264)"/>
     <use xlink:href="#CMMI12-74" transform="translate(58.691421 -14.943915) scale(0.697382)"/>
     <use xlink:href="#CMR17-2b" transform="translate(105.98707 0) scale(0.996264)"/>
     <use xlink:href="#CMMI12-b" transform="translate(199.841065 0) scale(0.996264)"/>
    </g>
   </g>
   <g id="patch_5">
    <path d="M 492.207368 70.750488 
Q 477.459814 79.427924 462.712261 88.10536 
L 463.72651 89.829106 
Q 460.936288 90.020538 458.146066 90.21197 
Q 459.668476 87.865856 461.190887 85.519742 
L 462.205136 87.243487 
Q 476.95269 78.566051 491.700243 69.888615 
L 492.207368 70.750488 
z
" style="fill: #2ca02c; stroke: #2ca02c; stroke-linecap: round"/>
   </g>
   <g id="text_6">
    <!-- $\beta^2 \sigma_t^2$ -->
    <g transform="translate(493.953552 65.448506) scale(0.15 -0.15)">
     <use xlink:href="#CMMI12-c" transform="scale(0.996264)"/>
     <use xlink:href="#CMR17-32" transform="translate(60.594016 36.153639) scale(0.697382)"/>
     <use xlink:href="#CMMI12-1b" transform="translate(93.07533 0) scale(0.996264)"/>
     <use xlink:href="#CMR17-32" transform="translate(152.095383 36.153639) scale(0.697382)"/>
     <use xlink:href="#CMMI12-74" transform="translate(148.520791 -24.62935) scale(0.697382)"/>
    </g>
   </g>
  </g>
  <g id="axes_3">
   <g id="line2d_7">
    <path d="M 589.610695 184.349219 
L 595.362902 183.971382 
L 599.677057 183.466193 
L 603.272186 182.820088 
L 606.148289 182.100185 
L 609.024393 181.146599 
L 611.900496 179.901345 
L 614.057574 178.73658 
L 616.214651 177.340304 
L 618.371729 175.680245 
L 620.528806 173.722934 
L 622.685884 171.434487 
L 624.842961 168.781569 
L 627.000039 165.732553 
L 629.157116 162.258839 
L 631.314194 158.336319 
L 633.471271 153.946943 
L 635.628349 149.080326 
L 637.785426 143.735344 
L 640.66153 135.882939 
L 643.537633 127.255335 
L 646.413736 117.951457 
L 650.008865 105.59293 
L 660.794253 67.729266 
L 663.670356 58.710238 
L 665.827434 52.593042 
L 667.984511 47.160423 
L 669.422563 43.972218 
L 670.860615 41.164504 
L 672.298666 38.762773 
L 673.736718 36.789108 
L 675.17477 35.26184 
L 676.612821 34.195272 
L 678.050873 33.599448 
L 678.769899 33.48 
L 679.488925 33.48 
L 680.207951 33.599448 
L 680.926976 33.83806 
L 682.365028 34.670239 
L 683.80308 35.968683 
L 685.241131 37.721195 
L 686.679183 39.911426 
L 688.117235 42.519131 
L 689.555286 45.520476 
L 691.712364 50.7006 
L 693.869441 56.602135 
L 696.026519 63.111493 
L 698.902622 72.526738 
L 703.216777 87.628706 
L 711.126061 115.535624 
L 714.721191 127.255335 
L 717.597294 135.882939 
L 720.473397 143.735344 
L 722.630475 149.080326 
L 724.787552 153.946943 
L 726.94463 158.336319 
L 729.101707 162.258839 
L 731.258785 165.732553 
L 733.415862 168.781569 
L 735.57294 171.434487 
L 737.730017 173.722934 
L 739.887095 175.680245 
L 742.044172 177.340304 
L 744.20125 178.73658 
L 746.358327 179.901345 
L 748.515405 180.865075 
L 751.391508 181.88582 
L 754.267612 182.659163 
L 757.862741 183.355949 
L 761.45787 183.829455 
L 766.491051 184.237216 
L 768.648128 184.349219 
L 768.648128 184.349219 
" clip-path="url(#p3afcf00f4f)" style="fill: none; stroke: #1f77b4; stroke-width: 1.5; stroke-linecap: square"/>
   </g>
   <g id="line2d_8">
    <path d="M 679.129412 184.68 
L 679.129412 33.48 
" clip-path="url(#p3afcf00f4f)" style="fill: none; stroke-dasharray: 5.55,2.4; stroke-dashoffset: 0; stroke: #ff7f0e; stroke-width: 1.5"/>
   </g>
   <g id="line2d_9">
    <path d="M 653.552636 92.963466 
L 704.706188 92.963466 
" clip-path="url(#p3afcf00f4f)" style="fill: none; stroke-dasharray: 5.55,2.4; stroke-dashoffset: 0; stroke: #2ca02c; stroke-width: 1.5"/>
   </g>
   <g id="text_7">
    <!-- $\epsilon$ -->
    <g transform="translate(675.190516 25.92) scale(0.2 -0.2)">
     <defs>
      <path id="CMMI12-f" d="M 1862 1472 
C 1958 1472 2067 1472 2067 1574 
C 2067 1657 2003 1657 1888 1657 
L 851 1657 
C 1011 2224 1389 2566 1958 2566 
L 2144 2566 
C 2253 2566 2349 2566 2349 2668 
C 2349 2752 2278 2752 2163 2752 
L 1946 2752 
C 1158 2752 294 2136 294 1141 
C 294 420 774 -64 1408 -64 
C 1818 -64 2221 193 2221 258 
C 2221 297 2202 336 2163 336 
C 2144 336 2131 330 2099 304 
C 1856 141 1619 64 1427 64 
C 1088 64 730 291 730 920 
C 730 1043 742 1212 800 1472 
L 1862 1472 
z
" transform="scale(0.015625)"/>
     </defs>
     <use xlink:href="#CMMI12-f" transform="scale(0.996264)"/>
    </g>
   </g>
   <g id="patch_6">
    <path d="M 678.629412 198.833642 
Q 678.629412 196.153013 678.629412 193.472383 
L 676.629412 193.472383 
Q 677.879412 190.97139 679.129412 188.470396 
Q 680.379412 190.97139 681.629412 193.472383 
L 679.629412 193.472383 
Q 679.629412 196.153013 679.629412 198.833642 
L 678.629412 198.833642 
z
" style="fill: #ff7f0e; stroke: #ff7f0e; stroke-linecap: round"/>
   </g>
   <g id="text_8">
    <!-- $\mu_{\epsilon} = 0$ -->
    <g transform="translate(658.855874 211.212775) scale(0.15 -0.15)">
     <defs>
      <path id="CMR17-3d" d="M 4115 2048 
C 4211 2048 4307 2048 4307 2156 
C 4307 2272 4198 2272 4090 2272 
L 512 2272 
C 403 2272 294 2272 294 2156 
C 294 2048 390 2048 486 2048 
L 4115 2048 
z
M 4090 927 
C 4198 927 4307 927 4307 1043 
C 4307 1152 4211 1152 4115 1152 
L 486 1152 
C 390 1152 294 1152 294 1043 
C 294 927 403 927 512 927 
L 4090 927 
z
" transform="scale(0.015625)"/>
      <path id="CMR17-30" d="M 2688 2038 
C 2688 2430 2682 3099 2413 3613 
C 2176 4063 1798 4224 1466 4224 
C 1158 4224 768 4082 525 3620 
C 269 3137 243 2539 243 2038 
C 243 1671 250 1112 448 623 
C 723 -39 1216 -128 1466 -128 
C 1760 -128 2208 -7 2470 604 
C 2662 1048 2688 1568 2688 2038 
z
M 1466 -26 
C 1056 -26 813 328 723 816 
C 653 1196 653 1749 653 2109 
C 653 2604 653 3015 736 3407 
C 858 3954 1216 4121 1466 4121 
C 1728 4121 2067 3947 2189 3420 
C 2272 3054 2278 2623 2278 2109 
C 2278 1691 2278 1176 2202 797 
C 2067 96 1690 -26 1466 -26 
z
" transform="scale(0.015625)"/>
     </defs>
     <use xlink:href="#CMMI12-16" transform="scale(0.996264)"/>
     <use xlink:href="#CMMI12-f" transform="translate(58.691421 -14.943915) scale(0.697382)"/>
     <use xlink:href="#CMR17-3d" transform="translate(114.435704 0) scale(0.996264)"/>
     <use xlink:href="#CMR17-30" transform="translate(213.824501 0) scale(0.996264)"/>
    </g>
   </g>
   <g id="patch_7">
    <path d="M 728.53678 70.750488 
Q 713.789226 79.427924 699.041673 88.10536 
L 700.055922 89.829106 
Q 697.2657 90.020538 694.475477 90.21197 
Q 695.997888 87.865856 697.520299 85.519742 
L 698.534548 87.243487 
Q 713.282102 78.566051 728.029655 69.888615 
L 728.53678 70.750488 
z
" style="fill: #2ca02c; stroke: #2ca02c; stroke-linecap: round"/>
   </g>
   <g id="text_9">
    <!-- $\sigma_{\epsilon}^2$ -->
    <g transform="translate(730.282964 65.448506) scale(0.15 -0.15)">
     <use xlink:href="#CMMI12-1b" transform="scale(0.996264)"/>
     <use xlink:href="#CMR17-32" transform="translate(59.020054 36.153639) scale(0.697382)"/>
     <use xlink:href="#CMMI12-f" transform="translate(55.445461 -24.62935) scale(0.697382)"/>
    </g>
   </g>
  </g>
  <g id="text_10">
   <!-- = -->
   <g transform="translate(313.069812 108) scale(0.3 -0.3)">
    <defs>
     <path id="CMSS17-3d" d="M 4147 2048 
C 4243 2048 4339 2048 4339 2156 
C 4339 2272 4230 2272 4122 2272 
L 550 2272 
C 442 2272 333 2272 333 2156 
C 333 2048 429 2048 525 2048 
L 4147 2048 
z
M 4122 927 
C 4230 927 4339 927 4339 1043 
C 4339 1152 4243 1152 4147 1152 
L 525 1152 
C 429 1152 333 1152 333 1043 
C 333 927 442 927 550 927 
L 4122 927 
z
" transform="scale(0.015625)"/>
    </defs>
    <use xlink:href="#CMSS17-3d" transform="scale(0.996264)"/>
   </g>
  </g>
  <g id="text_11">
   <!-- + -->
   <g transform="translate(550.669812 108) scale(0.3 -0.3)">
    <defs>
     <path id="CMSS17-2b" d="M 2451 1472 
L 4141 1472 
C 4230 1472 4339 1472 4339 1580 
C 4339 1696 4237 1696 4141 1696 
L 2451 1696 
L 2451 3385 
C 2451 3475 2451 3584 2342 3584 
C 2227 3584 2227 3481 2227 3385 
L 2227 1696 
L 531 1696 
C 442 1696 333 1696 333 1587 
C 333 1472 435 1472 531 1472 
L 2227 1472 
L 2227 -194 
C 2227 -282 2227 -391 2336 -391 
C 2451 -391 2451 -289 2451 -194 
L 2451 1472 
z
" transform="scale(0.015625)"/>
    </defs>
    <use xlink:href="#CMSS17-2b" transform="scale(0.996264)"/>
   </g>
  </g>
 </g>
 <defs>
  <clipPath id="p6fb919fb23">
   <rect x="108" y="25.92" width="196.941176" height="166.32"/>
  </clipPath>
  <clipPath id="p4716fea636">
   <rect x="344.329412" y="25.92" width="196.941176" height="166.32"/>
  </clipPath>
  <clipPath id="p3afcf00f4f">
   <rect x="580.658824" y="25.92" width="196.941176" height="166.32"/>
  </clipPath>
 </defs>
</svg>
