<?xml version="1.0" encoding="utf-8" standalone="no"?>
<!DOCTYPE svg PUBLIC "-//W3C//DTD SVG 1.1//EN"
  "http://www.w3.org/Graphics/SVG/1.1/DTD/svg11.dtd">
<svg xmlns:xlink="http://www.w3.org/1999/xlink" width="648pt" height="216pt" viewBox="0 0 648 216" xmlns="http://www.w3.org/2000/svg" version="1.1">
 <metadata>
  <rdf:RDF xmlns:dc="http://purl.org/dc/elements/1.1/" xmlns:cc="http://creativecommons.org/ns#" xmlns:rdf="http://www.w3.org/1999/02/22-rdf-syntax-ns#">
   <cc:Work>
    <dc:type rdf:resource="http://purl.org/dc/dcmitype/StillImage"/>
    <dc:date>2024-03-04T11:49:40.586370</dc:date>
    <dc:format>image/svg+xml</dc:format>
    <dc:creator>
     <cc:Agent>
      <dc:title>Matplotlib v3.7.2, https://matplotlib.org/</dc:title>
     </cc:Agent>
    </dc:creator>
   </cc:Work>
  </rdf:RDF>
 </metadata>
 <defs>
  <style type="text/css">*{stroke-linejoin: round; stroke-linecap: butt}</style>
 </defs>
 <g id="figure_1">
  <g id="patch_1">
   <path d="M 0 216 
L 648 216 
L 648 0 
L 0 0 
z
" style="fill: #ffffff"/>
  </g>
  <g id="axes_1">
   <g id="line2d_1">
    <path d="M 18.635858 177.736237 
L 24.300333 177.420642 
L 28.706036 176.94887 
L 31.852967 176.417451 
L 34.999898 175.655756 
L 37.517442 174.830119 
L 40.034987 173.763506 
L 42.552531 172.405425 
L 44.44069 171.16293 
L 46.328848 169.702041 
L 48.217007 167.998822 
L 50.105165 166.029983 
L 51.993324 163.773744 
L 53.881482 161.2108 
L 55.769641 158.325392 
L 57.657799 155.106425 
L 60.175344 150.287434 
L 62.692888 144.873914 
L 65.210433 138.898949 
L 68.357364 130.738653 
L 72.133681 120.193146 
L 80.945087 95.190441 
L 83.462632 88.806604 
L 85.35079 84.476737 
L 87.238948 80.631427 
L 89.127107 77.346233 
L 90.385879 75.500451 
L 91.644652 73.950164 
L 92.903424 72.709703 
L 94.162196 71.79064 
L 95.420968 71.201608 
L 96.679741 70.948166 
L 97.938513 71.032714 
L 99.197285 71.454449 
L 100.456058 72.209386 
L 101.71483 73.290415 
L 102.973602 74.687413 
L 104.232375 76.387403 
L 105.491147 78.374756 
L 107.379305 81.854525 
L 109.267464 85.870139 
L 111.785008 91.921894 
L 114.302553 98.586182 
L 118.07887 109.275639 
L 125.002118 129.02868 
L 128.149048 137.324112 
L 130.666593 143.430893 
L 133.184138 148.988973 
L 135.701682 153.958209 
L 138.219227 158.325392 
L 140.107385 161.2108 
L 141.995544 163.773744 
L 143.883702 166.029983 
L 145.771861 167.998822 
L 147.660019 169.702041 
L 149.548178 171.16293 
L 151.436336 172.405425 
L 153.953881 173.763506 
L 156.471425 174.830119 
L 158.98897 175.655756 
L 162.135901 176.417451 
L 165.282832 176.94887 
L 169.059148 177.368338 
L 174.094238 177.685767 
L 175.35301 177.736237 
L 175.35301 177.736237 
" clip-path="url(#p0ceb1feadc)" style="fill: none; stroke: #1f77b4; stroke-width: 1.5; stroke-linecap: square"/>
   </g>
   <g id="line2d_2">
    <path d="M 96.994434 177.97037 
L 96.994434 70.948166 
" clip-path="url(#p0ceb1feadc)" style="fill: none; stroke-dasharray: 5.55,2.4; stroke-dashoffset: 0; stroke: #ff7f0e; stroke-width: 1.5"/>
   </g>
   <g id="line2d_3">
    <path d="M 74.606269 113.051682 
L 119.382598 113.051682 
" clip-path="url(#p0ceb1feadc)" style="fill: none; stroke-dasharray: 5.55,2.4; stroke-dashoffset: 0; stroke: #2ca02c; stroke-width: 1.5"/>
   </g>
   <g id="text_1">
    <!-- Measured Data -->
    <g transform="translate(37.338847 24.636997) scale(0.2 -0.2)">
     <defs>
      <path id="CMSS17-4d" d="M 3194 2373 
L 2886 1476 
C 2835 1311 2662 795 2624 592 
L 2618 592 
C 2598 719 2560 853 2458 1177 
C 2400 1368 2336 1565 2272 1743 
L 1325 4416 
L 576 4416 
L 576 0 
L 1075 0 
L 1075 3899 
L 1082 3899 
C 1082 3893 1139 3613 1530 2500 
L 2374 102 
L 2848 102 
L 3610 2233 
C 3661 2379 3821 2843 3891 3066 
C 3955 3257 4115 3728 4154 3912 
L 4160 3912 
L 4160 0 
L 4666 0 
L 4666 4416 
L 3923 4416 
L 3194 2373 
z
" transform="scale(0.015625)"/>
      <path id="CMSS17-65" d="M 2502 1375 
C 2502 1587 2490 2001 2285 2347 
C 2061 2713 1696 2816 1421 2816 
C 755 2816 192 2184 192 1363 
C 192 579 774 -64 1510 -64 
C 1798 -64 2150 19 2470 249 
C 2470 275 2458 414 2451 421 
C 2451 433 2432 629 2432 655 
C 2125 408 1773 326 1517 326 
C 1107 326 666 667 646 1375 
L 2502 1375 
z
M 698 1728 
C 781 2086 1062 2425 1421 2425 
C 1517 2425 1965 2412 2080 1728 
L 698 1728 
z
" transform="scale(0.015625)"/>
      <path id="CMSS17-61" d="M 2406 1789 
C 2406 2399 1978 2816 1402 2816 
C 1120 2816 813 2764 461 2559 
L 499 2133 
C 659 2250 934 2438 1395 2438 
C 1722 2438 1920 2185 1920 1782 
L 1920 1536 
C 896 1504 256 1209 256 711 
C 256 452 416 -64 947 -64 
C 1043 -64 1562 -52 1933 224 
L 1933 -13 
L 2406 -13 
L 2406 1789 
z
M 1920 824 
C 1920 711 1920 559 1728 446 
C 1562 339 1350 326 1261 326 
C 941 326 723 503 723 723 
C 723 1165 1722 1209 1920 1216 
L 1920 824 
z
" transform="scale(0.015625)"/>
      <path id="CMSS17-73" d="M 2061 2623 
C 1683 2803 1389 2816 1197 2816 
C 742 2816 198 2655 198 2009 
C 198 1363 902 1222 1094 1183 
C 1389 1126 1715 1062 1715 742 
C 1715 339 1254 339 1171 339 
C 915 339 563 409 243 639 
L 166 211 
C 531 0 883 -64 1178 -64 
C 1965 -64 2163 416 2163 780 
C 2163 1094 1984 1305 1862 1401 
C 1651 1567 1574 1587 1050 1695 
C 960 1708 646 1779 646 2067 
C 646 2431 1050 2431 1139 2431 
C 1555 2431 1811 2303 1984 2207 
L 2061 2623 
z
" transform="scale(0.015625)"/>
      <path id="CMSS17-75" d="M 2618 2752 
L 2131 2752 
L 2131 976 
C 2131 500 1786 307 1421 307 
C 998 307 960 448 960 712 
L 960 2752 
L 474 2752 
L 474 680 
C 474 179 646 -64 1088 -64 
C 1306 -64 1798 -13 2144 307 
L 2144 -13 
L 2618 -13 
L 2618 2752 
z
" transform="scale(0.015625)"/>
      <path id="CMSS17-72" d="M 954 1369 
C 954 1974 1395 2379 1958 2392 
L 1958 2816 
C 1549 2809 1165 2604 934 2270 
L 934 2783 
L 480 2783 
L 480 0 
L 954 0 
L 954 1369 
z
" transform="scale(0.015625)"/>
      <path id="CMSS17-64" d="M 2611 4416 
L 2138 4416 
L 2138 2495 
C 1939 2662 1613 2816 1254 2816 
C 672 2816 211 2179 211 1375 
C 211 572 666 -64 1235 -64 
C 1677 -64 1971 172 2125 307 
L 2125 -13 
L 2611 -13 
L 2611 4416 
z
M 2125 851 
C 2125 760 2125 663 1926 488 
C 1798 378 1645 326 1498 326 
C 1152 326 698 585 698 1369 
C 698 2185 1210 2425 1562 2425 
C 1798 2425 1990 2308 2125 2114 
L 2125 851 
z
" transform="scale(0.015625)"/>
      <path id="CMSS17-44" d="M 570 4416 
L 570 0 
L 2144 0 
C 3194 0 4000 981 4000 2169 
C 4000 3396 3194 4416 2144 4416 
L 570 4416 
z
M 1094 358 
L 1094 4057 
L 2003 4057 
C 2861 4057 3475 3275 3475 2169 
C 3475 1108 2867 358 2003 358 
L 1094 358 
z
" transform="scale(0.015625)"/>
      <path id="CMSS17-74" d="M 1069 2380 
L 1901 2380 
L 1901 2752 
L 1069 2752 
L 1069 3520 
L 614 3520 
L 614 2752 
L 109 2752 
L 109 2380 
L 602 2380 
L 602 751 
C 602 384 685 -64 1107 -64 
C 1427 -64 1722 25 2003 172 
L 1901 551 
C 1747 416 1562 339 1363 339 
C 1082 339 1069 699 1069 860 
L 1069 2380 
z
" transform="scale(0.015625)"/>
     </defs>
     <use xlink:href="#CMSS17-4d" transform="scale(0.996264)"/>
     <use xlink:href="#CMSS17-65" transform="translate(81.67603 0) scale(0.996264)"/>
     <use xlink:href="#CMSS17-61" transform="translate(123.314852 0) scale(0.996264)"/>
     <use xlink:href="#CMSS17-73" transform="translate(168.236773 0) scale(0.996264)"/>
     <use xlink:href="#CMSS17-75" transform="translate(204.150315 0) scale(0.996264)"/>
     <use xlink:href="#CMSS17-72" transform="translate(252.355258 0) scale(0.996264)"/>
     <use xlink:href="#CMSS17-65" transform="translate(284.26503 0) scale(0.996264)"/>
     <use xlink:href="#CMSS17-64" transform="translate(325.903852 0) scale(0.996264)"/>
     <use xlink:href="#CMSS17-44" transform="translate(405.337908 0) scale(0.996264)"/>
     <use xlink:href="#CMSS17-61" transform="translate(472.88075 0) scale(0.996264)"/>
     <use xlink:href="#CMSS17-74" transform="translate(517.802671 0) scale(0.996264)"/>
     <use xlink:href="#CMSS17-61" transform="translate(551.634237 0) scale(0.996264)"/>
    </g>
    <!--  -->
    <g transform="translate(96.994434 45.117026) scale(0.2 -0.2)"/>
    <!-- $X$ -->
    <g transform="translate(88.898413 65.597056) scale(0.2 -0.2)">
     <defs>
      <path id="CMMI12-58" d="M 3040 2586 
L 2438 3981 
C 2522 4134 2714 4159 2790 4166 
C 2829 4166 2899 4172 2899 4281 
C 2899 4352 2842 4352 2803 4352 
C 2694 4352 2566 4339 2458 4339 
L 2086 4339 
C 1696 4339 1414 4352 1408 4352 
C 1357 4352 1293 4352 1293 4230 
C 1293 4166 1350 4166 1434 4166 
C 1805 4166 1830 4102 1894 3949 
L 2656 2179 
L 1267 701 
C 1037 453 762 211 288 185 
C 211 179 160 179 160 64 
C 160 44 166 0 237 0 
C 326 0 422 12 512 12 
L 813 12 
C 1018 12 1242 0 1440 0 
C 1485 0 1562 0 1562 115 
C 1562 179 1517 185 1478 185 
C 1350 198 1267 268 1267 370 
C 1267 478 1344 555 1530 746 
L 2099 1363 
C 2240 1510 2579 1879 2720 2019 
L 3392 453 
C 3398 440 3424 376 3424 370 
C 3424 312 3283 198 3078 185 
C 3040 185 2970 179 2970 64 
C 2970 0 3034 0 3066 0 
C 3174 0 3302 12 3411 12 
L 4115 12 
C 4230 12 4352 0 4461 0 
C 4506 0 4576 0 4576 121 
C 4576 185 4512 185 4454 185 
C 4070 191 4058 223 3949 459 
L 3104 2433 
L 3917 3300 
C 3981 3363 4128 3523 4186 3586 
C 4461 3873 4717 4134 5235 4166 
C 5299 4172 5363 4172 5363 4281 
C 5363 4352 5306 4352 5280 4352 
C 5190 4352 5094 4339 5005 4339 
L 4710 4339 
C 4506 4339 4282 4352 4083 4352 
C 4038 4352 3962 4352 3962 4236 
C 3962 4172 4006 4166 4045 4166 
C 4147 4153 4256 4102 4256 3981 
L 4250 3968 
C 4243 3924 4230 3860 4160 3784 
L 3040 2586 
z
" transform="scale(0.015625)"/>
     </defs>
     <use xlink:href="#CMMI12-58" transform="scale(0.996264)"/>
    </g>
   </g>
   <g id="patch_2">
    <path d="M 94.494434 185.653284 
Q 95.744434 183.153284 96.994434 180.653284 
Q 98.244434 183.153284 99.494434 185.653284 
z
" style="fill: #ff7f0e; stroke: #ff7f0e; stroke-linecap: round"/>
   </g>
   <g id="text_2">
    <!-- $\mu_X$ -->
    <g transform="translate(88.259368 196.750767) scale(0.15 -0.15)">
     <defs>
      <path id="CMMI12-16" d="M 922 140 
C 1082 -7 1318 -64 1536 -64 
C 1946 -64 2227 210 2374 408 
C 2438 70 2707 -64 2931 -64 
C 3123 -64 3277 51 3392 281 
C 3494 498 3584 887 3584 913 
C 3584 944 3558 970 3520 970 
C 3462 970 3456 938 3430 842 
C 3334 466 3213 64 2950 64 
C 2765 64 2752 229 2752 357 
C 2752 504 2810 734 2854 925 
L 3034 1615 
C 3059 1736 3130 2023 3162 2138 
C 3200 2291 3270 2566 3270 2591 
C 3270 2687 3194 2752 3098 2752 
C 3040 2752 2906 2726 2854 2534 
L 2406 759 
C 2374 632 2374 619 2291 517 
C 2214 408 1965 64 1562 64 
C 1203 64 1088 325 1088 625 
C 1088 811 1146 1034 1171 1143 
L 1459 2292 
C 1491 2413 1542 2617 1542 2656 
C 1542 2758 1459 2816 1376 2816 
C 1318 2816 1178 2796 1126 2592 
L 198 -1085 
C 192 -1116 179 -1154 179 -1191 
C 179 -1287 256 -1351 352 -1351 
C 538 -1351 576 -1204 621 -1029 
L 922 140 
z
" transform="scale(0.015625)"/>
     </defs>
     <use xlink:href="#CMMI12-16" transform="scale(0.996264)"/>
     <use xlink:href="#CMMI12-58" transform="translate(58.691421 -14.943915) scale(0.697382)"/>
    </g>
   </g>
   <g id="patch_3">
    <path d="M 139.966412 99.008068 
Q 127.592969 104.302721 115.219525 109.597373 
L 116.006328 111.436107 
Q 113.21683 111.270114 110.427333 111.104122 
Q 112.233327 108.971697 114.039322 106.839273 
L 114.826124 108.678006 
Q 127.199568 103.383354 139.573011 98.088701 
L 139.966412 99.008068 
z
" style="fill: #2ca02c; stroke: #2ca02c; stroke-linecap: round"/>
   </g>
   <g id="text_3">
    <!-- $\sigma_X^2$ -->
    <g transform="translate(141.770763 93.576076) scale(0.15 -0.15)">
     <defs>
      <path id="CMMI12-1b" d="M 3251 2406 
C 3334 2406 3546 2406 3546 2611 
C 3546 2752 3424 2752 3309 2752 
L 1894 2752 
C 934 2752 243 1685 243 932 
C 243 389 595 -64 1171 -64 
C 1926 -64 2752 746 2752 1704 
C 2752 1953 2694 2195 2541 2406 
L 3251 2406 
z
M 1178 64 
C 851 64 614 312 614 753 
C 614 1136 845 2406 1786 2406 
C 2061 2406 2368 2272 2368 1780 
C 2368 1557 2266 1021 2042 651 
C 1811 274 1466 64 1178 64 
z
" transform="scale(0.015625)"/>
      <path id="CMR17-32" d="M 2669 990 
L 2554 990 
C 2490 537 2438 460 2413 422 
C 2381 371 1920 371 1830 371 
L 602 371 
C 832 620 1280 1073 1824 1596 
C 2214 1966 2669 2400 2669 3033 
C 2669 3788 2067 4224 1395 4224 
C 691 4224 262 3603 262 3027 
C 262 2777 448 2745 525 2745 
C 589 2745 781 2783 781 3007 
C 781 3206 614 3264 525 3264 
C 486 3264 448 3257 422 3244 
C 544 3788 915 4057 1306 4057 
C 1862 4057 2227 3616 2227 3033 
C 2227 2477 1901 1998 1536 1583 
L 262 147 
L 262 0 
L 2515 0 
L 2669 990 
z
" transform="scale(0.015625)"/>
     </defs>
     <use xlink:href="#CMMI12-1b" transform="scale(0.996264)"/>
     <use xlink:href="#CMR17-32" transform="translate(59.020054 36.153639) scale(0.697382)"/>
     <use xlink:href="#CMMI12-58" transform="translate(55.445461 -27.44057) scale(0.697382)"/>
    </g>
   </g>
  </g>
  <g id="axes_2">
   <g id="line2d_4">
    <path d="M 245.641424 177.736237 
L 251.305899 177.420642 
L 255.711602 176.94887 
L 258.858533 176.417451 
L 262.005464 175.655756 
L 264.523008 174.830119 
L 267.040553 173.763506 
L 269.558098 172.405425 
L 271.446256 171.16293 
L 273.334415 169.702041 
L 275.222573 167.998822 
L 277.110732 166.029983 
L 278.99889 163.773744 
L 280.887048 161.2108 
L 282.775207 158.325392 
L 284.663365 155.106425 
L 287.18091 150.287434 
L 289.698455 144.873914 
L 292.215999 138.898949 
L 295.36293 130.738653 
L 299.139247 120.193146 
L 307.950653 95.190441 
L 310.468198 88.806604 
L 312.356356 84.476737 
L 314.244515 80.631427 
L 316.132673 77.346233 
L 317.391445 75.500451 
L 318.650218 73.950164 
L 319.90899 72.709703 
L 321.167762 71.79064 
L 322.426535 71.201608 
L 323.685307 70.948166 
L 324.944079 71.032714 
L 326.202852 71.454449 
L 327.461624 72.209386 
L 328.720396 73.290415 
L 329.979168 74.687413 
L 331.237941 76.387403 
L 332.496713 78.374756 
L 334.384872 81.854525 
L 336.27303 85.870139 
L 338.790575 91.921894 
L 341.308119 98.586182 
L 345.084436 109.275639 
L 352.007684 129.02868 
L 355.154615 137.324112 
L 357.672159 143.430893 
L 360.189704 148.988973 
L 362.707248 153.958209 
L 365.224793 158.325392 
L 367.112952 161.2108 
L 369.00111 163.773744 
L 370.889268 166.029983 
L 372.777427 167.998822 
L 374.665585 169.702041 
L 376.553744 171.16293 
L 378.441902 172.405425 
L 380.959447 173.763506 
L 383.476992 174.830119 
L 385.994536 175.655756 
L 389.141467 176.417451 
L 392.288398 176.94887 
L 396.064715 177.368338 
L 401.099804 177.685767 
L 402.358576 177.736237 
L 402.358576 177.736237 
" clip-path="url(#pe589434243)" style="fill: none; stroke: #1f77b4; stroke-width: 1.5; stroke-linecap: square"/>
   </g>
   <g id="line2d_5">
    <path d="M 324 177.97037 
L 324 70.948166 
" clip-path="url(#pe589434243)" style="fill: none; stroke-dasharray: 5.55,2.4; stroke-dashoffset: 0; stroke: #ff7f0e; stroke-width: 1.5"/>
   </g>
   <g id="line2d_6">
    <path d="M 301.611835 113.051682 
L 346.388165 113.051682 
" clip-path="url(#pe589434243)" style="fill: none; stroke-dasharray: 5.55,2.4; stroke-dashoffset: 0; stroke: #2ca02c; stroke-width: 1.5"/>
   </g>
   <g id="text_4">
    <!-- Affine Transformed True Data -->
    <g transform="translate(206.33036 24.636997) scale(0.2 -0.2)">
     <defs>
      <path id="CMSS17-41" d="M 2272 4416 
L 1722 4416 
L 166 0 
L 653 0 
L 1101 1280 
L 2816 1280 
L 3270 0 
L 3827 0 
L 2272 4416 
z
M 2694 1638 
L 1222 1638 
C 1530 2530 1914 3638 1958 3924 
L 1965 3924 
C 2010 3663 2138 3281 2246 2956 
L 2694 1638 
z
" transform="scale(0.015625)"/>
      <path id="CMSS17-e" d="M 4422 4480 
L 3910 4480 
L 3910 3967 
L 4422 3967 
L 4422 4480 
z
M 4403 2752 
L 3930 2752 
L 3930 0 
L 4403 0 
L 4403 2752 
z
M 2739 2380 
L 3437 2380 
L 3437 2752 
L 2726 2752 
L 2726 3613 
C 2726 3961 2880 4134 3085 4134 
C 3226 4134 3360 4089 3437 4044 
L 3437 4480 
C 3322 4512 3270 4524 3085 4524 
C 2605 4524 2266 4038 2266 3402 
L 2266 0 
L 2739 0 
L 2739 2380 
z
M 1075 2380 
L 1773 2380 
L 1773 2752 
L 1062 2752 
L 1062 3599 
C 1062 4038 1325 4134 1510 4134 
C 1619 4134 1773 4115 1920 4051 
L 1920 4473 
C 1754 4518 1728 4524 1510 4524 
C 986 4524 602 4044 602 3396 
L 602 2752 
L 160 2752 
L 160 2380 
L 602 2380 
L 602 0 
L 1075 0 
L 1075 2380 
z
" transform="scale(0.015625)"/>
      <path id="CMSS17-6e" d="M 2618 1878 
C 2618 2283 2522 2816 1798 2816 
C 1389 2816 1120 2604 941 2386 
L 941 2783 
L 474 2783 
L 474 0 
L 960 0 
L 960 1556 
C 960 1962 1114 2425 1549 2425 
C 2112 2425 2131 2045 2131 1826 
L 2131 0 
L 2618 0 
L 2618 1878 
z
" transform="scale(0.015625)"/>
      <path id="CMSS17-54" d="M 2317 3987 
L 2848 3987 
C 2925 3987 3002 3980 3078 3980 
L 3878 3980 
L 3878 4396 
L 218 4396 
L 218 3980 
L 1018 3980 
C 1094 3980 1171 3987 1248 3987 
L 1779 3987 
L 1779 0 
L 2317 0 
L 2317 3987 
z
" transform="scale(0.015625)"/>
      <path id="CMSS17-66" d="M 1075 2380 
L 1722 2380 
L 1722 2752 
L 1062 2752 
L 1062 3563 
C 1062 4013 1408 4089 1606 4089 
C 1670 4089 1850 4089 2080 4007 
L 2080 4428 
C 1933 4460 1754 4480 1613 4480 
C 1018 4480 602 3994 602 3366 
L 602 2752 
L 160 2752 
L 160 2380 
L 602 2380 
L 602 0 
L 1075 0 
L 1075 2380 
z
" transform="scale(0.015625)"/>
      <path id="CMSS17-6f" d="M 2829 1356 
C 2829 2175 2221 2816 1504 2816 
C 768 2816 173 2156 173 1356 
C 173 544 787 -64 1498 -64 
C 2227 -64 2829 563 2829 1356 
z
M 1504 339 
C 1050 339 659 710 659 1407 
C 659 2150 1114 2425 1498 2425 
C 1914 2425 2342 2124 2342 1407 
C 2342 684 1926 339 1504 339 
z
" transform="scale(0.015625)"/>
      <path id="CMSS17-6d" d="M 4288 1878 
C 4288 2309 4179 2816 3462 2816 
C 2982 2816 2694 2515 2566 2328 
C 2451 2668 2182 2816 1798 2816 
C 1363 2816 1088 2566 941 2386 
L 941 2783 
L 474 2783 
L 474 0 
L 960 0 
L 960 1556 
C 960 1936 1101 2425 1555 2425 
C 2138 2425 2138 2013 2138 1826 
L 2138 0 
L 2624 0 
L 2624 1556 
C 2624 1936 2765 2425 3219 2425 
C 3802 2425 3802 2013 3802 1826 
L 3802 0 
L 4288 0 
L 4288 1878 
z
" transform="scale(0.015625)"/>
     </defs>
     <use xlink:href="#CMSS17-41" transform="scale(0.996264)"/>
     <use xlink:href="#CMSS17-e" transform="translate(62.217855 0) scale(0.996264)"/>
     <use xlink:href="#CMSS17-6e" transform="translate(138.368797 0) scale(0.996264)"/>
     <use xlink:href="#CMSS17-65" transform="translate(186.57374 0) scale(0.996264)"/>
     <use xlink:href="#CMSS17-54" transform="translate(259.441675 0) scale(0.996264)"/>
     <use xlink:href="#CMSS17-72" transform="translate(315.453874 0) scale(0.996264)"/>
     <use xlink:href="#CMSS17-61" transform="translate(347.363646 0) scale(0.996264)"/>
     <use xlink:href="#CMSS17-6e" transform="translate(392.285567 0) scale(0.996264)"/>
     <use xlink:href="#CMSS17-73" transform="translate(440.49051 0) scale(0.996264)"/>
     <use xlink:href="#CMSS17-66" transform="translate(476.404052 0) scale(0.996264)"/>
     <use xlink:href="#CMSS17-6f" transform="translate(505.030711 0) scale(0.996264)"/>
     <use xlink:href="#CMSS17-72" transform="translate(549.27188 0) scale(0.996264)"/>
     <use xlink:href="#CMSS17-6d" transform="translate(581.181653 0) scale(0.996264)"/>
     <use xlink:href="#CMSS17-65" transform="translate(655.410907 0) scale(0.996264)"/>
     <use xlink:href="#CMSS17-64" transform="translate(697.049729 0) scale(0.996264)"/>
     <use xlink:href="#CMSS17-54" transform="translate(776.483785 0) scale(0.996264)"/>
     <use xlink:href="#CMSS17-72" transform="translate(832.495984 0) scale(0.996264)"/>
     <use xlink:href="#CMSS17-75" transform="translate(864.405756 0) scale(0.996264)"/>
     <use xlink:href="#CMSS17-65" transform="translate(912.610699 0) scale(0.996264)"/>
     <use xlink:href="#CMSS17-44" transform="translate(985.478634 0) scale(0.996264)"/>
     <use xlink:href="#CMSS17-61" transform="translate(1053.021476 0) scale(0.996264)"/>
     <use xlink:href="#CMSS17-74" transform="translate(1097.943396 0) scale(0.996264)"/>
     <use xlink:href="#CMSS17-61" transform="translate(1131.774963 0) scale(0.996264)"/>
    </g>
    <!--  -->
    <g transform="translate(324 45.117026) scale(0.2 -0.2)"/>
    <!-- $\alpha + \beta t$ -->
    <g transform="translate(296.550598 65.597056) scale(0.2 -0.2)">
     <defs>
      <path id="CMMI12-b" d="M 2963 1615 
C 2963 2234 2611 2816 1933 2816 
C 1094 2816 256 1902 256 996 
C 256 440 602 -64 1254 -64 
C 1651 -64 2125 89 2579 472 
C 2669 115 2867 -64 3142 -64 
C 3488 -64 3661 293 3661 376 
C 3661 434 3616 434 3597 434 
C 3546 434 3539 415 3520 364 
C 3462 204 3315 64 3162 64 
C 2963 64 2963 472 2963 862 
C 3616 1641 3770 2445 3770 2451 
C 3770 2509 3718 2509 3699 2509 
C 3642 2509 3635 2490 3610 2375 
C 3526 2094 3360 1596 2963 1072 
L 2963 1615 
z
M 2560 625 
C 1997 121 1491 64 1267 64 
C 813 64 685 466 685 766 
C 685 1040 826 1692 1024 2043 
C 1286 2490 1645 2687 1933 2687 
C 2554 2687 2554 1877 2554 1340 
C 2554 1181 2547 1015 2547 855 
C 2547 728 2554 696 2560 625 
z
" transform="scale(0.015625)"/>
      <path id="CMR17-2b" d="M 2413 1472 
L 4109 1472 
C 4198 1472 4307 1472 4307 1580 
C 4307 1696 4205 1696 4109 1696 
L 2413 1696 
L 2413 3385 
C 2413 3475 2413 3584 2304 3584 
C 2189 3584 2189 3481 2189 3385 
L 2189 1696 
L 493 1696 
C 403 1696 294 1696 294 1587 
C 294 1472 397 1472 493 1472 
L 2189 1472 
L 2189 -194 
C 2189 -282 2189 -391 2298 -391 
C 2413 -391 2413 -289 2413 -194 
L 2413 1472 
z
" transform="scale(0.015625)"/>
      <path id="CMMI12-c" d="M 3622 3739 
C 3622 4131 3296 4544 2714 4544 
C 1888 4544 1363 3510 1197 2830 
L 186 -1152 
C 173 -1204 211 -1216 243 -1216 
C 288 -1216 320 -1210 326 -1178 
L 774 592 
C 838 231 1190 -64 1568 -64 
C 2483 -64 3347 657 3347 1618 
C 3347 1863 3290 2108 3155 2314 
C 3078 2437 2982 2527 2880 2599 
C 3341 2823 3622 3222 3622 3739 
z
M 2509 2605 
C 2406 2571 2304 2560 2182 2560 
C 2093 2560 2010 2553 1894 2588 
C 1958 2627 2054 2639 2189 2639 
C 2304 2639 2419 2627 2509 2605 
z
M 3290 3798 
C 3290 3438 3117 2915 2701 2684 
C 2579 2723 2413 2752 2272 2752 
C 2138 2752 1754 2765 1754 2582 
C 1754 2411 2106 2430 2214 2430 
C 2381 2430 2528 2469 2682 2514 
C 2886 2347 2976 2127 2976 1805 
C 2976 1431 2874 1128 2752 850 
C 2541 373 2042 64 1600 64 
C 1133 64 890 438 890 876 
C 890 934 890 1018 915 1115 
L 1331 2784 
C 1542 3641 2080 4413 2701 4413 
C 3162 4413 3290 4086 3290 3798 
z
" transform="scale(0.015625)"/>
      <path id="CMMI12-74" d="M 1286 2566 
L 1875 2566 
C 1997 2566 2061 2566 2061 2681 
C 2061 2752 2022 2752 1894 2752 
L 1331 2752 
L 1568 3664 
C 1594 3752 1594 3764 1594 3808 
C 1594 3910 1510 3968 1427 3968 
C 1376 3968 1229 3948 1178 3746 
L 928 2752 
L 326 2752 
C 198 2752 141 2752 141 2630 
C 141 2566 186 2566 307 2566 
L 877 2566 
L 454 881 
C 403 657 384 593 384 510 
C 384 210 595 -64 954 -64 
C 1600 -64 1946 868 1946 913 
C 1946 951 1920 970 1882 970 
C 1869 970 1843 970 1830 944 
C 1824 938 1818 932 1773 830 
C 1638 510 1344 64 973 64 
C 781 64 768 223 768 364 
C 768 370 768 491 787 568 
L 1286 2566 
z
" transform="scale(0.015625)"/>
     </defs>
     <use xlink:href="#CMMI12-b" transform="scale(0.996264)"/>
     <use xlink:href="#CMR17-2b" transform="translate(84.82023 0) scale(0.996264)"/>
     <use xlink:href="#CMMI12-c" transform="translate(178.674225 0) scale(0.996264)"/>
     <use xlink:href="#CMMI12-74" transform="translate(239.268241 0) scale(0.996264)"/>
    </g>
   </g>
   <g id="patch_4">
    <path d="M 321.5 185.653284 
Q 322.75 183.153284 324 180.653284 
Q 325.25 183.153284 326.5 185.653284 
z
" style="fill: #ff7f0e; stroke: #ff7f0e; stroke-linecap: round"/>
   </g>
   <g id="text_5">
    <!-- $\mu_t + \alpha$ -->
    <g transform="translate(303.795569 196.750767) scale(0.15 -0.15)">
     <use xlink:href="#CMMI12-16" transform="scale(0.996264)"/>
     <use xlink:href="#CMMI12-74" transform="translate(58.691421 -14.943915) scale(0.697382)"/>
     <use xlink:href="#CMR17-2b" transform="translate(105.98707 0) scale(0.996264)"/>
     <use xlink:href="#CMMI12-b" transform="translate(199.841065 0) scale(0.996264)"/>
    </g>
   </g>
   <g id="patch_5">
    <path d="M 366.977167 98.611081 
Q 354.592978 104.076931 342.208789 109.542782 
L 343.016346 111.372495 
Q 340.224623 111.238309 337.432899 111.104122 
Q 339.215176 108.951167 340.997454 106.798212 
L 341.805011 108.627925 
Q 354.1892 103.162075 366.573388 97.696224 
L 366.977167 98.611081 
z
" style="fill: #2ca02c; stroke: #2ca02c; stroke-linecap: round"/>
   </g>
   <g id="text_6">
    <!-- $\beta^2 \sigma_t^2$ -->
    <g transform="translate(368.776329 93.576076) scale(0.15 -0.15)">
     <use xlink:href="#CMMI12-c" transform="scale(0.996264)"/>
     <use xlink:href="#CMR17-32" transform="translate(60.594016 36.153639) scale(0.697382)"/>
     <use xlink:href="#CMMI12-1b" transform="translate(93.07533 0) scale(0.996264)"/>
     <use xlink:href="#CMR17-32" transform="translate(152.095383 36.153639) scale(0.697382)"/>
     <use xlink:href="#CMMI12-74" transform="translate(148.520791 -24.62935) scale(0.697382)"/>
    </g>
   </g>
  </g>
  <g id="axes_3">
   <g id="line2d_7">
    <path d="M 472.64699 177.736237 
L 478.311465 177.420642 
L 482.717168 176.94887 
L 485.864099 176.417451 
L 489.01103 175.655756 
L 491.528575 174.830119 
L 494.046119 173.763506 
L 496.563664 172.405425 
L 498.451822 171.16293 
L 500.339981 169.702041 
L 502.228139 167.998822 
L 504.116298 166.029983 
L 506.004456 163.773744 
L 507.892615 161.2108 
L 509.780773 158.325392 
L 511.668932 155.106425 
L 514.186476 150.287434 
L 516.704021 144.873914 
L 519.221565 138.898949 
L 522.368496 130.738653 
L 526.144813 120.193146 
L 534.956219 95.190441 
L 537.473764 88.806604 
L 539.361922 84.476737 
L 541.250081 80.631427 
L 543.138239 77.346233 
L 544.397012 75.500451 
L 545.655784 73.950164 
L 546.914556 72.709703 
L 548.173328 71.79064 
L 549.432101 71.201608 
L 550.690873 70.948166 
L 551.949645 71.032714 
L 553.208418 71.454449 
L 554.46719 72.209386 
L 555.725962 73.290415 
L 556.984735 74.687413 
L 558.243507 76.387403 
L 559.502279 78.374756 
L 561.390438 81.854525 
L 563.278596 85.870139 
L 565.796141 91.921894 
L 568.313685 98.586182 
L 572.090002 109.275639 
L 579.01325 129.02868 
L 582.160181 137.324112 
L 584.677725 143.430893 
L 587.19527 148.988973 
L 589.712815 153.958209 
L 592.230359 158.325392 
L 594.118518 161.2108 
L 596.006676 163.773744 
L 597.894835 166.029983 
L 599.782993 167.998822 
L 601.671152 169.702041 
L 603.55931 171.16293 
L 605.447469 172.405425 
L 607.965013 173.763506 
L 610.482558 174.830119 
L 613.000102 175.655756 
L 616.147033 176.417451 
L 619.293964 176.94887 
L 623.070281 177.368338 
L 628.10537 177.685767 
L 629.364142 177.736237 
L 629.364142 177.736237 
" clip-path="url(#pebee9ce9ba)" style="fill: none; stroke: #1f77b4; stroke-width: 1.5; stroke-linecap: square"/>
   </g>
   <g id="line2d_8">
    <path d="M 551.005566 177.97037 
L 551.005566 70.948166 
" clip-path="url(#pebee9ce9ba)" style="fill: none; stroke-dasharray: 5.55,2.4; stroke-dashoffset: 0; stroke: #ff7f0e; stroke-width: 1.5"/>
   </g>
   <g id="line2d_9">
    <path d="M 528.617402 113.051682 
L 573.393731 113.051682 
" clip-path="url(#pebee9ce9ba)" style="fill: none; stroke-dasharray: 5.55,2.4; stroke-dashoffset: 0; stroke: #2ca02c; stroke-width: 1.5"/>
   </g>
   <g id="text_7">
    <!-- Random Error -->
    <g transform="translate(496.014342 24.636997) scale(0.2 -0.2)">
     <defs>
      <path id="CMSS17-52" d="M 2522 2099 
L 2534 2105 
C 3533 2450 3539 3125 3539 3244 
C 3539 3838 2925 4416 2003 4416 
L 570 4416 
L 570 0 
L 1094 0 
L 1094 2041 
L 2035 2041 
L 3168 0 
L 3706 0 
L 2522 2099 
z
M 1094 2432 
L 1094 4057 
L 1933 4057 
C 2746 4057 3034 3607 3034 3244 
C 3034 2907 2778 2432 1933 2432 
L 1094 2432 
z
" transform="scale(0.015625)"/>
      <path id="CMSS17-45" d="M 1958 435 
C 1446 435 1216 435 1101 428 
L 1101 2105 
L 3085 2105 
L 3085 2496 
L 1101 2496 
L 1101 3993 
L 1926 3993 
C 2003 3993 2080 3987 2157 3987 
L 3251 3987 
L 3251 4403 
L 563 4403 
L 563 0 
L 3334 0 
L 3334 441 
L 1958 435 
z
" transform="scale(0.015625)"/>
     </defs>
     <use xlink:href="#CMSS17-52" transform="scale(0.996264)"/>
     <use xlink:href="#CMSS17-61" transform="translate(60.416155 0) scale(0.996264)"/>
     <use xlink:href="#CMSS17-6e" transform="translate(105.338075 0) scale(0.996264)"/>
     <use xlink:href="#CMSS17-64" transform="translate(153.543019 0) scale(0.996264)"/>
     <use xlink:href="#CMSS17-6f" transform="translate(201.747962 0) scale(0.996264)"/>
     <use xlink:href="#CMSS17-6d" transform="translate(248.591585 0) scale(0.996264)"/>
     <use xlink:href="#CMSS17-45" transform="translate(354.049952 0) scale(0.996264)"/>
     <use xlink:href="#CMSS17-72" transform="translate(409.941966 0) scale(0.996264)"/>
     <use xlink:href="#CMSS17-72" transform="translate(441.851738 0) scale(0.996264)"/>
     <use xlink:href="#CMSS17-6f" transform="translate(473.761511 0) scale(0.996264)"/>
     <use xlink:href="#CMSS17-72" transform="translate(518.00268 0) scale(0.996264)"/>
    </g>
    <!--  -->
    <g transform="translate(551.005566 45.117026) scale(0.2 -0.2)"/>
    <!-- $\epsilon$ -->
    <g transform="translate(547.06667 65.597056) scale(0.2 -0.2)">
     <defs>
      <path id="CMMI12-f" d="M 1862 1472 
C 1958 1472 2067 1472 2067 1574 
C 2067 1657 2003 1657 1888 1657 
L 851 1657 
C 1011 2224 1389 2566 1958 2566 
L 2144 2566 
C 2253 2566 2349 2566 2349 2668 
C 2349 2752 2278 2752 2163 2752 
L 1946 2752 
C 1158 2752 294 2136 294 1141 
C 294 420 774 -64 1408 -64 
C 1818 -64 2221 193 2221 258 
C 2221 297 2202 336 2163 336 
C 2144 336 2131 330 2099 304 
C 1856 141 1619 64 1427 64 
C 1088 64 730 291 730 920 
C 730 1043 742 1212 800 1472 
L 1862 1472 
z
" transform="scale(0.015625)"/>
     </defs>
     <use xlink:href="#CMMI12-f" transform="scale(0.996264)"/>
    </g>
   </g>
   <g id="patch_6">
    <path d="M 548.505566 185.653284 
Q 549.755566 183.153284 551.005566 180.653284 
Q 552.255566 183.153284 553.505566 185.653284 
z
" style="fill: #ff7f0e; stroke: #ff7f0e; stroke-linecap: round"/>
   </g>
   <g id="text_8">
    <!-- $\mu_{\epsilon} = 0$ -->
    <g transform="translate(530.732028 196.750767) scale(0.15 -0.15)">
     <defs>
      <path id="CMR17-3d" d="M 4115 2048 
C 4211 2048 4307 2048 4307 2156 
C 4307 2272 4198 2272 4090 2272 
L 512 2272 
C 403 2272 294 2272 294 2156 
C 294 2048 390 2048 486 2048 
L 4115 2048 
z
M 4090 927 
C 4198 927 4307 927 4307 1043 
C 4307 1152 4211 1152 4115 1152 
L 486 1152 
C 390 1152 294 1152 294 1043 
C 294 927 403 927 512 927 
L 4090 927 
z
" transform="scale(0.015625)"/>
      <path id="CMR17-30" d="M 2688 2038 
C 2688 2430 2682 3099 2413 3613 
C 2176 4063 1798 4224 1466 4224 
C 1158 4224 768 4082 525 3620 
C 269 3137 243 2539 243 2038 
C 243 1671 250 1112 448 623 
C 723 -39 1216 -128 1466 -128 
C 1760 -128 2208 -7 2470 604 
C 2662 1048 2688 1568 2688 2038 
z
M 1466 -26 
C 1056 -26 813 328 723 816 
C 653 1196 653 1749 653 2109 
C 653 2604 653 3015 736 3407 
C 858 3954 1216 4121 1466 4121 
C 1728 4121 2067 3947 2189 3420 
C 2272 3054 2278 2623 2278 2109 
C 2278 1691 2278 1176 2202 797 
C 2067 96 1690 -26 1466 -26 
z
" transform="scale(0.015625)"/>
     </defs>
     <use xlink:href="#CMMI12-16" transform="scale(0.996264)"/>
     <use xlink:href="#CMMI12-f" transform="translate(58.691421 -14.943915) scale(0.697382)"/>
     <use xlink:href="#CMR17-3d" transform="translate(114.435704 0) scale(0.996264)"/>
     <use xlink:href="#CMR17-30" transform="translate(213.824501 0) scale(0.996264)"/>
    </g>
   </g>
   <g id="patch_7">
    <path d="M 593.982733 98.611081 
Q 581.598544 104.076931 569.214355 109.542782 
L 570.021913 111.372495 
Q 567.230189 111.238309 564.438465 111.104122 
Q 566.220742 108.951167 568.00302 106.798212 
L 568.810577 108.627925 
Q 581.194766 103.162075 593.578955 97.696224 
L 593.982733 98.611081 
z
" style="fill: #2ca02c; stroke: #2ca02c; stroke-linecap: round"/>
   </g>
   <g id="text_9">
    <!-- $\sigma_{\epsilon}^2$ -->
    <g transform="translate(595.781895 93.576076) scale(0.15 -0.15)">
     <use xlink:href="#CMMI12-1b" transform="scale(0.996264)"/>
     <use xlink:href="#CMR17-32" transform="translate(59.020054 36.153639) scale(0.697382)"/>
     <use xlink:href="#CMMI12-f" transform="translate(55.445461 -24.62935) scale(0.697382)"/>
    </g>
   </g>
  </g>
  <g id="text_10">
   <!-- = -->
   <g transform="translate(232.069812 108) scale(0.3 -0.3)">
    <defs>
     <path id="CMSS17-3d" d="M 4147 2048 
C 4243 2048 4339 2048 4339 2156 
C 4339 2272 4230 2272 4122 2272 
L 550 2272 
C 442 2272 333 2272 333 2156 
C 333 2048 429 2048 525 2048 
L 4147 2048 
z
M 4122 927 
C 4230 927 4339 927 4339 1043 
C 4339 1152 4243 1152 4147 1152 
L 525 1152 
C 429 1152 333 1152 333 1043 
C 333 927 442 927 550 927 
L 4122 927 
z
" transform="scale(0.015625)"/>
    </defs>
    <use xlink:href="#CMSS17-3d" transform="scale(0.996264)"/>
   </g>
  </g>
  <g id="text_11">
   <!-- + -->
   <g transform="translate(410.269812 108) scale(0.3 -0.3)">
    <defs>
     <path id="CMSS17-2b" d="M 2451 1472 
L 4141 1472 
C 4230 1472 4339 1472 4339 1580 
C 4339 1696 4237 1696 4141 1696 
L 2451 1696 
L 2451 3385 
C 2451 3475 2451 3584 2342 3584 
C 2227 3584 2227 3481 2227 3385 
L 2227 1696 
L 531 1696 
C 442 1696 333 1696 333 1587 
C 333 1472 435 1472 531 1472 
L 2227 1472 
L 2227 -194 
C 2227 -282 2227 -391 2336 -391 
C 2451 -391 2451 -289 2451 -194 
L 2451 1472 
z
" transform="scale(0.015625)"/>
    </defs>
    <use xlink:href="#CMSS17-2b" transform="scale(0.996264)"/>
   </g>
  </g>
 </g>
 <defs>
  <clipPath id="p0ceb1feadc">
   <rect x="10.8" y="65.597056" width="172.388868" height="117.724424"/>
  </clipPath>
  <clipPath id="pe589434243">
   <rect x="237.805566" y="65.597056" width="172.388868" height="117.724424"/>
  </clipPath>
  <clipPath id="pebee9ce9ba">
   <rect x="464.811132" y="65.597056" width="172.388868" height="117.724424"/>
  </clipPath>
 </defs>
</svg>
